<svg xmlns="http://www.w3.org/2000/svg" viewBox="0 0 55.08 55.08"><defs><style>.cls-1{fill:#5adfed;}.cls-2{fill:#fff;}</style></defs><g id="Layer_2" data-name="Layer 2"><g id="Layer_2-2" data-name="Layer 2"><circle class="cls-1" cx="27.54" cy="27.54" r="27.54"/><path class="cls-2" d="M49.29,31.83c-3,.17-3.9-2.85-6.2-7.36C40.32,19,32.85,15,38.42,9.06,41.29,6,47.78,12.85,50,20.11,52.35,27.83,51.72,31.69,49.29,31.83Z"/><path class="cls-2" d="M44.25,36.07c1.42-2.18,6.51-1.86,5.38,1.45C47.23,44.51,41.1,40.93,44.25,36.07Z"/><path class="cls-2" d="M16.81,48.05C11.44,47.61,4.18,37.24,4,27.78c-.1-6.73,2-13.77,7.55-16.41C17.7,8.45,30.08,6.19,32.26,16a6.66,6.66,0,0,1-1.19,5.58c1.55.6,8.58.72,10.24,9a12.29,12.29,0,0,1-5.44,12.66A31.67,31.67,0,0,1,16.81,48.05Z"/><path class="cls-1" d="M12.64,23.24c1.56.83,9.73-2.41,9.59-5.6s-8.1-2.42-10-.29C11.42,18.25,11.28,22.52,12.64,23.24Z"/><path class="cls-1" d="M18.35,41c7.54-.67,12.18-5.59,11.19-8.19C28,28.89,19.78,29,15.09,30.76,12.12,31.88,15.65,41.26,18.35,41Z"/></g></g></svg>