<svg xmlns="http://www.w3.org/2000/svg" viewBox="0 0 18.33 20.04"><defs><style>.cls-1{fill:#868484;}</style></defs><g id="Layer_2" data-name="Layer 2"><g id="Layer_2-2" data-name="Layer 2"><path class="cls-1" d="M13.63,4.71a4.47,4.47,0,0,0-.82.08,6.52,6.52,0,1,0-6.28,8.27,6.44,6.44,0,0,0,3.31-.93,4.69,4.69,0,1,0,3.79-7.42ZM8.94,9.4a4.49,4.49,0,0,0,.15,1.1A4.73,4.73,0,1,1,6.53,1.8a4.73,4.73,0,0,1,4.59,3.65A4.7,4.7,0,0,0,8.94,9.4Zm4.69,2.89a2.89,2.89,0,1,1,2.9-2.89A2.9,2.9,0,0,1,13.63,12.29Z"/><path class="cls-1" d="M8.31,20a3.18,3.18,0,1,1,3.18-3.18A3.18,3.18,0,0,1,8.31,20Zm0-4.55a1.38,1.38,0,1,0,1.37,1.37A1.38,1.38,0,0,0,8.31,15.49Z"/></g></g></svg>