<svg xmlns="http://www.w3.org/2000/svg" viewBox="0 0 18.3 20.04"><defs><style>.cls-1{fill:#6654b4;}</style></defs><g id="Layer_2" data-name="Layer 2"><g id="Layer_2-2" data-name="Layer 2"><path class="cls-1" d="M8.31,13.69a3.18,3.18,0,1,0,3.18,3.17A3.17,3.17,0,0,0,8.31,13.69Z"/><path class="cls-1" d="M13.61,4.68a5.29,5.29,0,0,0-.8.08,6.53,6.53,0,1,0-6.28,8.3,6.43,6.43,0,0,0,3.31-.92,4.69,4.69,0,1,0,3.77-7.46ZM10.05,7.53a.9.9,0,0,1-.9-.9A2.7,2.7,0,0,0,7.23,4a.9.9,0,1,1,.53-1.72A4.5,4.5,0,0,1,11,6.63.9.9,0,0,1,10.05,7.53Zm5.41,2.85a.9.9,0,0,1-.9-.9A1,1,0,0,0,14,8.56a.91.91,0,0,1-.36-1.23A.92.92,0,0,1,14.89,7a2.88,2.88,0,0,1,1.47,2.5A.91.91,0,0,1,15.46,10.38Z"/></g></g></svg>