<svg xmlns="http://www.w3.org/2000/svg" viewBox="0 0 15.67 20.8"><defs><style>.cls-1{fill:#868484;}</style></defs><g id="Layer_2" data-name="Layer 2"><g id="Layer_2-2" data-name="Layer 2"><path class="cls-1" d="M7.84,1.8a6,6,0,0,1,6,6,6,6,0,0,1-1,3.31L8.7,18.5a1,1,0,0,1-.86.5A1,1,0,0,1,7,18.5l-4.2-7.35A6,6,0,0,1,7,1.86a5.93,5.93,0,0,1,.84-.06m0-1.8A7.81,7.81,0,0,0,.06,6.82a7.9,7.9,0,0,0,1.19,5.27l4.16,7.3A2.81,2.81,0,0,0,7.84,20.8a2.78,2.78,0,0,0,2.42-1.41l4.16-7.3A7.84,7.84,0,0,0,7.84,0Z"/><circle class="cls-1" cx="7.84" cy="7.66" r="2.83"/></g></g></svg>