<svg xmlns="http://www.w3.org/2000/svg" viewBox="0 0 18.86 18.86"><defs><style>.cls-1{fill:#6654b4;}</style></defs><g id="Layer_2" data-name="Layer 2"><g id="Layer_2-2" data-name="Layer 2"><path class="cls-1" d="M9.43,0a9.43,9.43,0,1,0,9.43,9.43A9.43,9.43,0,0,0,9.43,0Zm3.35,10.33H10.22V12.9a.9.9,0,1,1-1.8,0V10.33H5.85a.9.9,0,0,1,0-1.8H8.42V6a.9.9,0,1,1,1.8,0V8.53h2.56a.9.9,0,1,1,0,1.8Zm1.76-5c-.89-.51-2.62-.54-2.17-2,.23-.74,1.77-.36,2.71.47s1.33,1.87.9,2.06S15.28,5.78,14.54,5.36ZM16,7.47c0-.45.93-1,1.09-.47C17.49,8.62,16,8.71,16,7.47Z"/></g></g></svg>